/* XPM */
static char *result[] = {
/* columns rows colors chars-per-pixel */
"50 50 24 1 ",
"  c #000000",
". c #000000",
"X c #000000",
"o c #000000",
"O c #000000",
"+ c #000000",
"@ c #000000",
"# c #000000",
"$ c #000000",
"% c #000000",
"& c #000000",
"* c #000000",
"= c #000000",
"- c #000000",
"; c #000000",
": c #000000",
"> c #000000",
", c #000000",
"< c #000000",
"1 c #000000",
"2 c #000000",
"3 c #000000",
"4 c #000000",
"5 c None",
/* pixels */
"55555555555555555555555555555555555555555555555555",
"55555555555555555555555555555555555555555555555555",
"55555555555555555555555555555555555555555555555555",
"55555555555555555555555555555555555555555555555555",
"55555555555555555555555555555555555555555555555555",
"55555555555555555555555555555555555555555555555555",
"55555555555555555555555555555555555555555555555555",
"55555555OOXXX*<-XXXXXXXXXXXXXXXXXX-<*XXXOO55555555",
"555555OOOOOOO=4:OOOOOOOOOOOOOOOOOO:4=OOOOOO#555555",
"555555OOOOOOO=4:OOOOOOOOOOOOOOOOOO:4=OOOOOOO555555",
"55555.OOOOOOO=4:OOOOOOOOOOOOOOOOOO:4=OOOOOOO+55555",
"55555#OOOOOOO=4:OOOOOOOOOOOOOOOOOO:4=OOOOOOO.55555",
"55555OOOOOOOO=4:OOOOOOOOOOOOOOOOOO:4=OOOOOOOO55555",
"55555OOOOOOOO=4:OOOOOOOOOOOOOOOOOO:4=OOOOOOOO55555",
"55555OOOOOOOO=4:OOOOOOOOOOOOOOOOOO:4=OOOOOOOO55555",
"55555OOOOOOOO=4:OOOOOOOOOOOOOOOOOO:4=OOOOOOOO55555",
"55555OOOOOOOO=4:OOOOOOOOOOOOOOOOOO:4=OOOOOOOO55555",
"55555%&&&&&&&;4,&&&&&&&&&&&&&&&&&&,4;&&&&&&&%55555",
"55555344444444444444444444444444444444444444355555",
"55555>11111111111111111244211111111111111111>55555",
"55555OOOOOOOOOOOOOOOOOO$44$OOOOOOOOOOOOOOOOOO55555",
"55555OOOOOOOOOOOOOOOOOO$44$OOOOOOOOOOOOOOOOOO55555",
"55555OOOOOOOOOOOOOOOOOO$44$OOOOOOOOOOOOOOOOOO55555",
"55555OOOOOOOOOOOOOOOOOO$44$OOOOOOOOOOOOOOOOOO55555",
"55555OOOOOOOOOOOOOOOOOO$44$OOOOOOOOOOOOOOOOOO55555",
"55555OOOOOOOOOOOOOOOOOO$44$OOOOOOOOOOOOOOOOOO55555",
"55555OOOOOOOOOOOOOOOOOO$44$OOOOOOOOOOOOOOOOOO55555",
"55555OOOOOOOOOOOOOOOOOO$44$OOOOOOOOOOOOOOOOOO55555",
"55555OOOOOOOOOOOOOOOOOO$44$OOOOOOOOOOOOOOOOOO55555",
"55555OOOOOOOOOOOOOOOOOO$44$OOOOOOOOOOOOOOOOOO55555",
"55555>11111111111111111244211111111111111111>55555",
"55555344444444444444444444444444444444444444355555",
"55555%&&&&&&&;4,&&&&&&&&&&&&&&&&&&,4;&&&&&&&%55555",
"55555OOOOOOOO=4:OOOOOOOOOOOOOOOOOO:4=OOOOOOOO55555",
"55555OOOOOOOO=4:OOOOOOOOOOOOOOOOOO:4=OOOOOOOO55555",
"55555OOOOOOOO=4:OOOOOOOOOOOOOOOOOO:4=OOOOOOOO55555",
"55555OOOOOOOO=4:OOOOOOOOOOOOOOOOOO:4=OOOOOOOO55555",
"55555OOOOOOOO=4:OOOOOOOOOOOOOOOOOO:4=OOOOOOOO55555",
"55555#OOOOOOO=4:OOOOOOOOOOOOOOOOOO:4=OOOOOOO.55555",
"55555oOOOOOOO=4:OOOOOOOOOOOOOOOOOO:4=OOOOOOOO55555",
"555555OOOOOOO=4:OOOOOOOOOOOOOOOOOO:4=OOOOOOO555555",
"555555XOOOOOO=4:OOOOOOOOOOOOOOOOOO:4=OOOOOO@555555",
"55555555#OXXX*<-XXXXXXXXXXXXXXXXXX-<*XXXO 55555555",
"55555555555555555555555555555555555555555555555555",
"55555555555555555555555555555555555555555555555555",
"55555555555555555555555555555555555555555555555555",
"55555555555555555555555555555555555555555555555555",
"55555555555555555555555555555555555555555555555555",
"55555555555555555555555555555555555555555555555555",
"55555555555555555555555555555555555555555555555555"
};
