/* XPM */
static char *result[] = {
/* columns rows colors chars-per-pixel */
"48 48 24 1 ",
"  c #EF6C00",
". c #F06C00",
"X c #F06E01",
"o c #F06F01",
"O c #F16F01",
"+ c #F17202",
"@ c #F17403",
"# c #F27603",
"$ c #F47D06",
"% c #F57F07",
"& c #F68207",
"* c #F58108",
"= c #F78509",
"- c #F98A0A",
"; c #F98C0B",
": c #FA8C0B",
"> c #FA8E0B",
", c #FA8D0C",
"< c #FB900C",
"1 c #FB910D",
"2 c #FB920D",
"3 c #FB930D",
"4 c #FB920E",
"5 c None",
/* pixels */
"555555555555555555555555555555555555555555555555",
"555555555555555555555555555555555555555555555555",
"555555555555555555555555555555555555555555555555",
"555555555555555555555555555555555555555555555555",
"555555555555555555555555555555555555555555555555",
"555555555555555555555555555555555555555555555555",
"555555555555555555555555555555555555555555555555",
"555555555555555555555555555555555555555555555555",
"555555555555555555555555555555555555555555555555",
"5555555555555555555222222222:5555555555555555555",
"555555555555555555422222222=o5555555555555555555",
"5555555555555555553222222>#  .555555555555555555",
"555555555555555555222222&X    555555555555555555",
"5555555555555555542222;@       55555555555555555",
"555555555555555552221%        .55555555555555555",
"5555555555555555522-+          55555555555555555",
"5555555555555555,<$             5555555555555555",
"5555555555555555*O             .5555555555555555",
"55555555555222222222:555555222222222:55555555555",
"5555555555422222222=o55555422222222=o55555555555",
"55555555553222222>#  .55553222222>#  .5555555555",
"5555555555222222&X    5555222222&X    5555555555",
"55555555542222;@       5542222;@       555555555",
"5555555552221%        .552221%        .555555555",
"55555555522-+          5522-+          555555555",
"55555555,<$             ,<$             55555555",
"55555555*O              *O              55555555",
"555222222222:555555222222222:555555222222222:555",
"55422222222=o55555422222222=o55555422222222=o555",
"553222222>#  .55553222222>#  .55553222222>#  .55",
"55222222&X    5555222222&X    5555222222&X    55",
"542222;@       5542222;@       5542222;@       5",
"52221%        .552221%        .552221%        .5",
"522-+          5522-+          5522-+          5",
",<$             ,<$             ,<$             ",
"*O              *O              *O              ",
"555555555555555555555555555555555555555555555555",
"555555555555555555555555555555555555555555555555",
"555555555555555555555555555555555555555555555555",
"555555555555555555555555555555555555555555555555",
"555555555555555555555555555555555555555555555555",
"555555555555555555555555555555555555555555555555",
"555555555555555555555555555555555555555555555555",
"555555555555555555555555555555555555555555555555",
"555555555555555555555555555555555555555555555555",
"555555555555555555555555555555555555555555555555",
"555555555555555555555555555555555555555555555555",
"555555555555555555555555555555555555555555555555"
};
