/* XPM */
static char *_d82fbd88b3042b8ac5eb679f3eba57ceSCkt13WhS8Qvuj1[] = {
/* columns rows colors chars-per-pixel */
"50 50 135 2 ",
"   c None",
".  c #000000",
"X  c #0C0404",
"o  c #140707",
"O  c #150C0C",
"+  c #1A0B0B",
"@  c #1F1212",
"#  c #200A0A",
"$  c #2E0E0E",
"%  c #271717",
"&  c #2B1B19",
"*  c #201E14",
"=  c #301212",
"-  c #311C1C",
";  c #29261A",
":  c #3C2323",
">  c #373323",
",  c #451717",
"<  c #4E1717",
"1  c #4E1A1A",
"2  c #451B1B",
"3  c #551B1B",
"4  c #661F1F",
"5  c #4A2B2B",
"6  c #582222",
"7  c #573232",
"8  c #593634",
"9  c #622121",
"0  c #652828",
"q  c #692323",
"w  c #732424",
"e  c #6A3D3D",
"r  c #584336",
"t  c #5C563A",
"y  c #6A473F",
"u  c #794646",
"i  c #6B5141",
"p  c #6D6646",
"a  c #802B2B",
"s  c #8D2B2B",
"d  c #9C2F2F",
"f  c #8B3030",
"g  c #9B3434",
"h  c #963232",
"j  c #A43737",
"k  c #AB3535",
"l  c #AE3A3A",
"z  c #B13737",
"x  c #B43A3A",
"c  c #BC3E3E",
"v  c #C03F3F",
"b  c #864D4D",
"n  c #9D5143",
"m  c #885B50",
"M  c #9F5C5C",
"N  c #935555",
"B  c #BE4040",
"V  c #A05C5C",
"C  c #92614A",
"Z  c #957E5D",
"A  c #A0675E",
"S  c #A16C5F",
"D  c #B2775A",
"F  c #955D64",
"G  c #93636B",
"H  c #AB6363",
"J  c #B66969",
"K  c #A17B62",
"L  c #A07077",
"P  c #A6757C",
"I  c #C74343",
"U  c #C94646",
"Y  c #CA4E4C",
"T  c #C04C4C",
"R  c #CE594F",
"E  c #D15454",
"W  c #D26355",
"Q  c #D56E5B",
"!  c #C17070",
"~  c #CD7676",
"^  c #D87D7D",
"/  c #EC7D7D",
"(  c #988E61",
")  c #A38965",
"_  c #A49969",
"`  c #BCAF78",
"'  c #BDB078",
"]  c #DC8467",
"[  c #CE8A7A",
"{  c #E39873",
"}  c #C7A273",
"|  c #E7A379",
" . c #A97980",
".. c #7A8D9D",
"X. c #778A9C",
"o. c #7C8FA0",
"O. c #7F91A2",
"+. c #8496A6",
"@. c #8698A7",
"#. c #879AA9",
"$. c #8B9CAB",
"%. c #8FA0AF",
"&. c #95A5B4",
"*. c #A0B0BC",
"=. c #E28383",
"-. c #EE8282",
";. c #EC8888",
":. c #F78F8F",
">. c #F79590",
",. c #F89B91",
"<. c #D1B182",
"1. c #F9A694",
"2. c #FAB396",
"3. c #FBBE99",
"4. c #D3C586",
"5. c #DFD08E",
"6. c #F1C48C",
"7. c #FCC49A",
"8. c #FDD69E",
"9. c #F4E39B",
"0. c #FFEEA3",
"q. c #A7B6C2",
"w. c #B0BECA",
"e. c #B5C3CE",
"r. c #BDCBD5",
"t. c #C0CDD7",
"y. c #C6D3DC",
"u. c #C9D5DE",
"i. c #CED9E2",
"p. c #D5DFE8",
"a. c #D1DDE6",
"s. c #D7E2EA",
"d. c #DBE5ED",
"f. c #DFE9F0",
"g. c #E1EBF2",
/* pixels */
"                                                                                                    ",
"                                                                                                    ",
"                                                                                                    ",
"            ..X.#.$.O...X.....$.+.X.....$...X.#...o.                                                ",
"          ..$.i.g.g.f.r.O.O.i.g.g.t.O.u.g.s.e.g.i...                                                ",
"        ..#.d.g.g.g.g.g.i.y.g.g.g.g.s.g.g.g.d.g.i...                                                ",
"        ..r.g.g.g.g.g.g.g.g.g.g.g.g.d.f.g.f.%.#.....                                                ",
"        X.d.g.g.g.g.g.g.g.g.g.g.g.g.w.+.q.$...                                                      ",
"        X.d.g.g.g.g.g.g.g.s.s.g.g.u.o.X.....                          I                             ",
"        X.u.g.g.g.g.g.g.g.q...&.%.....                              U I U                           ",
"        o.&.g.g.g.g.g.g.s.O.......                                U U / E I                         ",
"          X.*.f.g.g.g.p.#...                                    U U -.:.:.E U                       ",
"            G G P  .L G F                                     U U -.:.:.:.;.E U                     ",
"            k z x z z l k                                   U U -.:.:.:.:.:.:.Y U                   ",
"          k z I I I I I k                                 U U -.:.:.:.:.:.:.:.:.E U                 ",
"          k z U I I I I k                               U U -.:.:.:.:.:.:.:.:.:.:.E U               ",
". . . . . . . . . . . . . . . . . . . . . . . . . . . . . . . . . . . . . . . . . . . . . . . . . . ",
".         k x I I I I I z                           U U -.:.:.:.:.:.:.:.:.:.:.:.:.:.:.E U         . ",
".         k c I I I I I z k                       U U -.:.:.:.:.:.:.:.:.:.:.:.:.:.:.:.:.E I       . ",
".         k c U I I I U z k                     U U -.:.:.:.:.:.:.:.:.:.:.:.:.:.:.:.:.:.:.E U     . ",
".         w a z I c j l x z                     I -.>.=.J V H ^ >.=.~ ~ ~ ~ ~ =.=.~ ~ ~ ~ :.Y     . ",
".     . . . . o a a . , x k       . . . . . .   I :.J O . . . . 8.K . . . . . Z ) . . . . . = f   . ",
".   . . . 4 3 o a a . , c k     . . . . . . . X B =.+ @ i ( t . 0.) . % e i p ' _ . & e 8 . o .   . ",
". . .     k I B l a . , c k     . .         . . 9 H + 5 1.0.0.5.0.) . 7 :.3.0.0._ . r :.:.=.6 X . . ",
". . .     k I I I a . , c k   . .             X + ~ % + H 0.0.0.0.) . 7 :.3.0.0._ . r :.:.:.T . . . ",
". .       k I I I a . , v k k . $ s k k k k d # o ;.b O . > ' 0.0.) . . . . . 4._ . r :.:.:.E + . . ",
". .       k I I I a . , I v v . $ k v v v v x + o ;.:.M & . . m 1.A . . . . . [ H . 8 :.:.:.E + . . ",
". .       k I I U a . , I I I o + g I I I I g $ + :.:.:.;.M - @ ! M . 7 :.:.:.:.M . 8 :.:.:.Y . . . ",
". . .     k I I x a . , I I I 9 . 1 B I I I 1 . 9 ! =.:.>.:.7 @ M M . 7 :.:.:.:.M . 8 >.:.;.0 . . . ",
". . . . < w a # a a . = a a a h + . , a a , . + x M O N V V % @ J M . : V V M J M . : M u & . X   . ",
".   . . . . . . _ _ . . . . . q } ; . . . . # j U M o . . . * p 0.) . . . . . t _ . . . . . 2 g   . ",
".       3 3 a D 0.4._ _ C a a j 6.9.` ( ( n B I I :.! M i ( ` 0.0.<.M M M K _ ` 4._ K M J ~ E I   . ",
".       z x I { 0.0.0.0.{ I I I 6.0.0.0.0.Q I I I :.:.:.1.0.0.0.0.8.:.:.:.3.0.0.0.0.3.:.:.:.E U   . ",
". . . . . . . . . . . . . . . . . . . . . . . . . . . . . . . . . . . . . . . . . . . . . . . . . . ",
"        k x I { 0.0.0.0.{ I I I 6.0.0.0.0.Q I I U :.:.:.1.0.0.0.0.8.:.:.:.3.0.0.0.0.3.:.:.:.E I     ",
"        k c I I I I I I I I I I I I I I I I I I I :.:.:.:.:.:.:.:.>.:.:.:.:.:.:.:.:.:.>.:.:.E I     ",
"        z c I I I I I I I I I I I I I I I I I I I :.:.:.:.:.>.:.:.:.:.:.:.:.:.:.:.:.:.:.:.:.E U     ",
"        k v I I I I I I I I I I I I I I I I I I I :.:.:.:.:.:.:.:.:.:.:.:.:.:.:.:.:.:.:.:.:.E I     ",
"        k v I R Q Q Q Q R I I I W Q Q Q Q Y I I I :.:.:.>.1.1.1.1.,.:.:.:.,.1.1.1.1.,.:.:.:.E U     ",
"        k v I { 0.0.0.0.{ I I I 6.0.0.0.0.Q I I I :.:.:.1.0.0.0.0.8.:.:.:.7.0.0.0.0.3.>.:.:.E I     ",
"        k I I { 0.0.0.0.{ I I I 6.0.0.0.0.Q I I I :.:.:.1.0.0.0.0.8.:.:.:.3.0.0.0.0.3.:.:.:.E U     ",
"        k I I { 0.0.0.0.{ I I I 6.0.0.0.0.Q I I U :.:.:.1.0.0.0.0.8.:.:.:.3.0.0.0.0.3.:.:.:.E I     ",
"        k I I { 0.0.0.0.{ I I I 6.0.0.0.0.Q I I I :.:.:.1.0.0.0.0.8.:.:.:.3.0.0.0.0.3.:.:.:.E I     ",
"        k I I ] 6.6.6.6.] I I I | 6.6.6.6.W I I I :.:.:.1.8.8.8.8.7.:.:.:.2.8.8.8.8.2.:.:.:.E I     ",
"        k U I I I I I I I I I I I I I I I I I I I :.:.:.:.:.:.:.:.:.:.:.:.:.:.:.>.:.:.:.:.:.E U     ",
"        l I I I I I I I I I I I I U I I I I I U I :.:.:.:.:.:.:.:.:.:.:.:.:.:.:.:.:.:.:.:.:.E I     ",
"      k k z z z z z z z z z z z z z z z z z z x U E E E E E E E E E E E E E E E E E E E E E U U     ",
"        k k k k k k k k k k k k k k k k k k k z c c B c B c B I U I U U U I I I I U I I U I I       ",
"                                                                                                    ",
"                                                                                                    "
};
