/* XPM */
static char *result[] = {
/* columns rows colors chars-per-pixel */
"50 50 150 2 ",
"   c #AB3333",
".  c #AB3434",
"X  c #AB3535",
"o  c #AC3434",
"O  c #AD3434",
"+  c #AC3535",
"@  c #AD3535",
"#  c #AE3636",
"$  c #AF393A",
"%  c #B03737",
"&  c #B13737",
"*  c #B23737",
"=  c #B03839",
"-  c #B13939",
";  c #B23838",
":  c #B0393A",
">  c #B03A3A",
",  c #B43838",
"<  c #B43939",
"1  c #B63A3A",
"2  c #B73A3A",
"3  c #B73B3B",
"4  c #B83B3B",
"5  c #B93C3C",
"6  c #BA3C3C",
"7  c #BB3C3C",
"8  c #BB3D3D",
"9  c #BD3E3E",
"0  c #BE3E3E",
"q  c #BF3E3E",
"w  c #BE3F3F",
"e  c #BF3F3F",
"r  c #C03F3F",
"t  c #955D64",
"y  c #92616A",
"u  c #92626B",
"i  c #94656D",
"p  c #A07077",
"a  c #A6757C",
"s  c #C14040",
"d  c #C24040",
"f  c #C34040",
"g  c #C44141",
"h  c #C44242",
"j  c #C54242",
"k  c #C64242",
"l  c #C74343",
"z  c #C74444",
"x  c #C84444",
"c  c #C94545",
"v  c #C94646",
"b  c #C94747",
"n  c #CA4747",
"m  c #CB4E49",
"M  c #CC4C4C",
"N  c #CE594F",
"B  c #D05353",
"V  c #D15454",
"C  c #D25454",
"Z  c #D25555",
"A  c #D26355",
"S  c #D56E5B",
"D  c #EC7D7D",
"F  c #DC8467",
"G  c #E39873",
"H  c #E7A379",
"J  c #A97980",
"K  c #778A9C",
"L  c #788B9B",
"P  c #788B9C",
"I  c #798B9C",
"U  c #7A8B9C",
"Y  c #788C9D",
"T  c #798C9D",
"R  c #798D9D",
"E  c #7A8C9D",
"W  c #7A8D9D",
"Q  c #798C9E",
"!  c #7A8C9E",
"~  c #7B8D9E",
"^  c #7A8E9E",
"/  c #7B8E9E",
"(  c #7C8E9E",
")  c #7C8F9E",
"_  c #7C8E9F",
"`  c #7C8F9F",
"'  c #7B8EA0",
"]  c #7C8FA0",
"[  c #7D90A1",
"{  c #7F92A1",
"}  c #7F91A2",
"|  c #7F91A3",
" . c #8396A4",
".. c #8496A5",
"X. c #8496A6",
"o. c #8597A7",
"O. c #8698A7",
"+. c #8799A8",
"@. c #879AA9",
"#. c #8899A9",
"$. c #899AAA",
"%. c #8A9CAB",
"&. c #8C9DAC",
"*. c #8C9EAC",
"=. c #8E9EAD",
"-. c #8FA0AF",
";. c #94A3B3",
":. c #95A6B5",
">. c #A0B0BC",
",. c #EE8282",
"<. c #F48B8B",
"1. c #F78F8F",
"2. c #F79590",
"3. c #F89B91",
"4. c #F9A193",
"5. c #F9A794",
"6. c #FAB396",
"7. c #FBBE99",
"8. c #F1C48C",
"9. c #FCC49A",
"0. c #FDD69E",
"q. c #FFEEA3",
"w. c #A4B3C0",
"e. c #A9B8C4",
"r. c #B0BECA",
"t. c #B5C3CE",
"y. c #BDCBD5",
"u. c #C0CDD7",
"i. c #C4D1DB",
"p. c #C7D4DD",
"a. c #C9D5DE",
"s. c #CDD9E1",
"d. c #CDD8E2",
"f. c #CEDAE2",
"g. c #CFDAE3",
"h. c #D1DDE6",
"j. c #D5DFE8",
"k. c #D6E1E9",
"l. c #D7E2EA",
"z. c #D8E3EA",
"x. c #DAE4EC",
"c. c #DBE5ED",
"v. c #DCE6EE",
"b. c #DCE7EE",
"n. c #DCE7EF",
"m. c #DDE7EF",
"M. c #DFE9F0",
"N. c #E0EAF1",
"B. c #E1EBF2",
"V. c None",
/* pixels */
"V.V.V.V.V.V.V.V.V.V.V.V.V.V.V.V.V.V.V.V.V.V.V.V.V.V.V.V.V.V.V.V.V.V.V.V.V.V.V.V.V.V.V.V.V.V.V.V.V.V.",
"V.V.V.V.V.V.V.V.V.V.V.V.V.V.V.V.V.V.V.V.V.V.V.V.V.V.V.V.V.V.V.V.V.V.V.V.V.V.V.V.V.V.V.V.V.V.V.V.V.V.",
"V.V.V.V.V.V.V.V.V.V.V.V.V.V.V.V.V.V.V.V.V.V.V.V.V.V.V.V.V.V.V.V.V.V.V.V.V.V.V.V.V.V.V.V.V.V.V.V.V.V.",
"V.V.V.V.V.V./ P X.*.} I U ! Y $. .T ! Y #./ P +.` ) V.V.V.V.V.V.V.V.V.V.V.V.V.V.V.V.V.V.V.V.V.V.V.V.",
"V.V.V.V.V.` %.d.B.B.N.y.[ | s.B.B.u.{ a.B.z.t.B.g.P V.V.V.V.V.V.V.V.V.V.V.V.V.V.V.V.V.V.V.V.V.V.V.V.",
"V.V.V.V.E O.v.B.B.B.B.B.f.i.B.B.B.B.z.B.B.B.b.B.s.P V.V.V.V.V.V.V.V.V.V.V.V.V.V.V.V.V.V.V.V.V.V.V.V.",
"V.V.V.V.! y.B.B.B.B.B.B.B.B.B.B.B.B.c.m.B.M.-.o.~ ( V.V.V.V.V.V.V.V.V.V.V.V.V.V.V.V.V.V.V.V.V.V.V.V.",
"V.V.V.V.P x.B.B.B.B.B.B.B.B.B.B.B.B.r...w.&.W V.V.V.V.V.V.V.V.V.V.V.V.V.V.V.V.V.V.V.V.V.V.V.V.V.V.V.",
"V.V.V.V.P m.B.B.B.B.B.B.B.j.l.B.B.a.' K _ R V.V.V.V.V.V.V.V.V.V.V.V.V.z V.V.V.V.V.V.V.V.V.V.V.V.V.V.",
"V.V.V.V.Y p.B.B.B.B.B.B.B.e.^ :.=.Y / V.V.V.V.V.V.V.V.V.V.V.V.V.V.V.x l c V.V.V.V.V.V.V.V.V.V.V.V.V.",
"V.V.V.V._ ;.N.B.B.B.B.B.k.] T T L V.V.V.V.V.V.V.V.V.V.V.V.V.V.V.V.x n D B v V.V.V.V.V.V.V.V.V.V.V.V.",
"V.V.V.V.V.Q >.n.B.B.B.h.@./ V.V.V.V.V.V.V.V.V.V.V.V.V.V.V.V.V.V.x n ,.1.<.B v V.V.V.V.V.V.V.V.V.V.V.",
"V.V.V.V.V.V.y i a J p u t V.V.V.V.V.V.V.V.V.V.V.V.V.V.V.V.V.V.x n ,.1.1.1.<.B v V.V.V.V.V.V.V.V.V.V.",
"V.V.V.V.V.V.+ = > $ : - . V.V.V.V.V.V.V.V.V.V.V.V.V.V.V.V.V.x n ,.1.1.1.1.1.<.B v V.V.V.V.V.V.V.V.V.",
"V.V.V.V.V.X * l l l l l . V.V.V.V.V.V.V.V.V.V.V.V.V.V.V.V.x n ,.1.1.1.1.1.1.1.<.B v V.V.V.V.V.V.V.V.",
"V.V.V.V.V.. , l l l l l O V.V.V.V.V.V.V.V.V.V.V.V.V.V.V.x n ,.1.1.1.1.1.1.1.1.1.<.B v V.V.V.V.V.V.V.",
"V.V.V.V.V.X 1 l l l l l # V.V.V.V.V.V.V.V.V.V.V.V.V.V.x n ,.1.1.1.1.1.1.1.1.1.1.1.<.B v V.V.V.V.V.V.",
"V.V.V.V.V.o 4 l l l l l % V.V.V.V.V.V.V.V.V.V.V.V.V.x n ,.1.1.1.1.1.1.1.1.1.1.1.1.1.<.B v V.V.V.V.V.",
"V.V.V.V.V.+ 6 l l l l l ;   V.V.V.V.V.V.V.V.V.V.V.x n ,.1.1.1.1.1.1.1.1.1.1.1.1.1.1.1.<.B v V.V.V.V.",
"V.V.V.V.V.o 7 l l l l l < + V.V.V.V.V.V.V.V.V.V.x n ,.1.1.1.1.1.1.1.1.1.1.1.1.1.1.1.1.1.<.B v V.V.V.",
"V.V.V.V.V.X 0 l l l l l 2 + V.V.V.V.V.V.V.V.V.V.l ,.1.1.1.1.1.1.1.1.1.1.1.1.1.1.1.1.1.1.1.<.M V.V.V.",
"V.V.V.V.V.. e l l l l l 4 X V.V.V.V.V.V.V.V.V.V.l 1.1.1.4.0.0.0.0.9.1.1.1.6.0.0.0.0.6.1.1.1.C z V.V.",
"V.V.V.V.V.. s l l l l l 6 o V.V.V.V.V.V.V.V.V.V.l 1.1.1.5.q.q.q.q.0.1.1.1.7.q.q.q.q.7.1.1.1.C z V.V.",
"V.V.V.V.V.. d l l l l l 8 o V.V.V.V.V.V.V.V.V.V.l 1.1.1.5.q.q.q.q.0.1.1.1.7.q.q.q.q.7.1.1.1.C z V.V.",
"V.V.V.V.V.. g l l l l l 9 @ V.V.V.V.V.V.V.V.V.V.l 1.1.1.5.q.q.q.q.0.1.1.1.7.q.q.q.q.7.1.1.1.C z V.V.",
"V.V.V.V.V.. k l l l l l 0 . . . . . . . . . . ; l 1.1.1.5.q.q.q.q.0.1.1.1.7.q.q.q.q.7.1.1.1.C z V.V.",
"V.V.V.V.V.o l l l l l l j r r r r r r r r r r d l 1.1.1.2.5.5.5.5.4.1.1.1.3.5.5.5.5.3.1.1.1.C z V.V.",
"V.V.V.V.V.+ l l l l l l l l l l l l l l l l l l l 1.1.1.1.1.1.1.1.1.1.1.1.1.1.1.1.1.1.1.1.1.C z V.V.",
"V.V.V.V.V.# l l l l l l l l l l l l l l l l l l l 1.1.1.1.1.1.1.1.1.1.1.1.1.1.1.1.1.1.1.1.1.C z V.V.",
"V.V.V.V.V.% l l l l l l l l l l l l l l l l l l l 1.1.1.1.1.1.1.1.1.1.1.1.1.1.1.1.1.1.1.1.1.C z V.V.",
"V.V.V.V.. ; l G q.q.q.q.G l l l 8.q.q.q.q.S l l l 1.1.1.5.q.q.q.q.0.1.1.1.7.q.q.q.q.7.1.1.1.C z V.V.",
"V.V.V.V.  < l G q.q.q.q.G l l l 8.q.q.q.q.S l l l 1.1.1.5.q.q.q.q.0.1.1.1.7.q.q.q.q.7.1.1.1.C z V.V.",
"V.V.V.V.@ 1 l G q.q.q.q.G l l l 8.q.q.q.q.S l l l 1.1.1.5.q.q.q.q.0.1.1.1.7.q.q.q.q.7.1.1.1.C z V.V.",
"V.V.V.V.+ 4 l G q.q.q.q.G l l l 8.q.q.q.q.S l l l 1.1.1.5.q.q.q.q.0.1.1.1.7.q.q.q.q.7.1.1.1.C z V.V.",
"V.V.V.V.o 5 l G q.q.q.q.G l l l 8.q.q.q.q.S l l l 1.1.1.5.q.q.q.q.0.1.1.1.7.q.q.q.q.7.1.1.1.C z V.V.",
"V.V.V.V.o 8 l l l l l l l l l l l l l l l l l l l 1.1.1.1.1.1.1.1.1.1.1.1.1.1.1.1.1.1.1.1.1.C z V.V.",
"V.V.V.V.@ 9 l l l l l l l l l l l l l l l l l l l 1.1.1.1.1.1.1.1.1.1.1.1.1.1.1.1.1.1.1.1.1.C z V.V.",
"V.V.V.V.o q l l l l l l l l l l l l l l l l l l l 1.1.1.1.1.1.1.1.1.1.1.1.1.1.1.1.1.1.1.1.1.C z V.V.",
"V.V.V.V.. r l N S S S S N l l l A S S S S m l l l 1.1.1.2.5.5.5.5.4.1.1.1.3.5.5.5.5.3.1.1.1.C z V.V.",
"V.V.V.V.. f l G q.q.q.q.G l l l 8.q.q.q.q.S l l l 1.1.1.5.q.q.q.q.0.1.1.1.7.q.q.q.q.7.1.1.1.C z V.V.",
"V.V.V.V.. h l G q.q.q.q.G l l l 8.q.q.q.q.S l l l 1.1.1.5.q.q.q.q.0.1.1.1.7.q.q.q.q.7.1.1.1.C z V.V.",
"V.V.V.V.. k l G q.q.q.q.G l l l 8.q.q.q.q.S l l l 1.1.1.5.q.q.q.q.0.1.1.1.7.q.q.q.q.7.1.1.1.C z V.V.",
"V.V.V.V.. l l G q.q.q.q.G l l l 8.q.q.q.q.S l l l 1.1.1.5.q.q.q.q.0.1.1.1.7.q.q.q.q.7.1.1.1.C z V.V.",
"V.V.V.V.o l l F 8.8.8.8.F l l l H 8.8.8.8.A l l l 1.1.1.4.0.0.0.0.9.1.1.1.6.0.0.0.0.6.1.1.1.C z V.V.",
"V.V.V.V.# l l l l l l l l l l l l l l l l l l l l 1.1.1.1.1.1.1.1.1.1.1.1.1.1.1.1.1.1.1.1.1.C z V.V.",
"V.V.V.V.% l l l l l l l l l l l l l l l l l l l l 1.1.1.1.1.1.1.1.1.1.1.1.1.1.1.1.1.1.1.1.1.C z V.V.",
"V.V.V.X @ & & & & & & & & & & & & & & & & & & 3 l V V V V V V Z Z Z Z Z Z Z Z Z Z Z Z Z Z Z b z V.V.",
"V.V.V.V.X X X X X X X X X X X X X X X X X X X * w w w w w w w z z z z z z z z z z z z z z z z V.V.V.",
"V.V.V.V.V.V.V.V.V.V.V.V.V.V.V.V.V.V.V.V.V.V.V.V.V.V.V.V.V.V.V.V.V.V.V.V.V.V.V.V.V.V.V.V.V.V.V.V.V.V.",
"V.V.V.V.V.V.V.V.V.V.V.V.V.V.V.V.V.V.V.V.V.V.V.V.V.V.V.V.V.V.V.V.V.V.V.V.V.V.V.V.V.V.V.V.V.V.V.V.V.V."
};
