/* XPM */
static char *_870e979a16a452ef2c2982caa045d829MhZKuMjmR9GX1eN[] = {
/* columns rows colors chars-per-pixel */
"50 50 250 2 ",
"   c #426C21",
".  c #687D34",
"X  c #5B882C",
"o  c #4B9428",
"O  c #5A992B",
"+  c #5C8732",
"@  c #5D9736",
"#  c #64872B",
"$  c #65982B",
"%  c #6B8B35",
"&  c #77863B",
"*  c #669437",
"=  c #659D34",
"-  c #6B9C35",
";  c #659D3A",
":  c #6B9C3A",
">  c #759738",
",  c #739D3B",
"<  c #7B9C3B",
"1  c #4DAA2D",
"2  c #5CA32D",
"3  c #58A92E",
"4  c #5DA435",
"5  c #5CAD31",
"6  c #5BB435",
"7  c #67A82D",
"8  c #70B52F",
"9  c #64A433",
"0  c #6BA534",
"q  c #63AA34",
"w  c #6CAB35",
"e  c #65A33B",
"r  c #6BA53B",
"t  c #63AD3C",
"y  c #6CAC3B",
"u  c #73A335",
"i  c #7AA234",
"p  c #72AC35",
"a  c #7CAD36",
"s  c #73A53C",
"d  c #7BA53C",
"f  c #73AC3C",
"g  c #7CAC3D",
"h  c #64B434",
"j  c #69B335",
"k  c #67BB37",
"l  c #6CBB34",
"z  c #66B33D",
"x  c #6DB43C",
"c  c #65BC3C",
"v  c #6BBB3C",
"b  c #74B335",
"n  c #78B533",
"m  c #73B33C",
"M  c #7BB43D",
"N  c #73BA3D",
"B  c #7BBB3D",
"V  c #5EC12E",
"C  c #6BC338",
"Z  c #71C43A",
"A  c #7AC43D",
"S  c #778A43",
"D  c #6C9D42",
"F  c #6A9845",
"G  c #7B9747",
"H  c #749D44",
"J  c #7B9C42",
"K  c #7B9A53",
"L  c #5FA541",
"P  c #5AB541",
"I  c #6BA542",
"U  c #66AB46",
"Y  c #6CAB44",
"T  c #74A443",
"R  c #7BA344",
"E  c #74AC43",
"W  c #7BAC44",
"Q  c #73A64B",
"!  c #7BA44A",
"~  c #74AC4B",
"^  c #7CAD4B",
"/  c #66B343",
"(  c #6DB444",
")  c #64BC46",
"_  c #6DBA44",
"`  c #6CB54A",
"'  c #6DBD4B",
"]  c #74B443",
"[  c #7CB444",
"{  c #74BB43",
"}  c #7BBB44",
"|  c #75B54A",
" . c #7CB34B",
".. c #75BB4C",
"X. c #7CBB4B",
"o. c #7CAC53",
"O. c #7BA854",
"+. c #74B452",
"@. c #7CB453",
"#. c #75B953",
"$. c #7DBB53",
"%. c #7CB45A",
"&. c #7EBD5B",
"*. c #6AC245",
"=. c #75C144",
"-. c #7BC244",
";. c #75CB45",
":. c #79CA45",
">. c #74C34B",
",. c #7CC34D",
"<. c #7CCA4B",
"1. c #75C155",
"2. c #7CC453",
"3. c #7DCA52",
"4. c #7DC35A",
"5. c #7ECA5C",
"6. c #7BC562",
"7. c #819B31",
"8. c #81A63A",
"9. c #83AC3C",
"0. c #89AB3B",
"q. c #82B13D",
"w. c #87BB3F",
"e. c #928F48",
"r. c #839B46",
"t. c #87964A",
"y. c #849E4B",
"u. c #889B54",
"i. c #9B9957",
"p. c #AA9D5E",
"a. c #83A643",
"s. c #8DA342",
"d. c #83AC44",
"f. c #8AAB44",
"g. c #83A44B",
"h. c #8BA54A",
"j. c #84AC4B",
"k. c #8BAC4C",
"l. c #93AC44",
"z. c #93A44C",
"x. c #94AC4C",
"c. c #98AB4A",
"v. c #83B444",
"b. c #8CB444",
"n. c #83BB45",
"m. c #8BB944",
"M. c #83B34C",
"N. c #8AB44C",
"B. c #83BB4C",
"V. c #8BBB4C",
"C. c #97B649",
"Z. c #92B44C",
"A. c #92BA4D",
"S. c #83A452",
"D. c #8BA353",
"F. c #83AC52",
"G. c #8BAD53",
"H. c #8BA459",
"J. c #87A95C",
"K. c #94A452",
"L. c #9AA555",
"P. c #92AC53",
"I. c #9CAB53",
"U. c #93AB5C",
"Y. c #9BAC59",
"T. c #84B452",
"R. c #8BB454",
"E. c #83BB53",
"W. c #8CBB53",
"Q. c #85B45B",
"!. c #8CB35B",
"~. c #84BC5A",
"^. c #8BBC5B",
"/. c #93B454",
"(. c #9BB454",
"). c #93BB53",
"_. c #99BB54",
"`. c #93B45B",
"'. c #9AB35C",
"]. c #93BB5B",
"[. c #9ABC5B",
"{. c #A3A94D",
"}. c #A1B34D",
"|. c #A3A859",
" X c #A2B45C",
".X c #A8B758",
"XX c #A3BC5C",
"oX c #97A864",
"OX c #87B864",
"+X c #8CBC64",
"@X c #94B463",
"#X c #9AB564",
"$X c #93BB63",
"%X c #9CBB63",
"&X c #95B86C",
"*X c #9DBB69",
"=X c #9EBD72",
"-X c #A4AD66",
";X c #B1A766",
":X c #A7B266",
">X c #A4BC63",
",X c #AABC66",
"<X c #AAB76A",
"1X c #A3BA6A",
"2X c #B4B867",
"3X c #BBAF74",
"4X c #AABA75",
"5X c #82C746",
"6X c #83C34C",
"7X c #8BC34D",
"8X c #91C34D",
"9X c #82C353",
"0X c #8BC254",
"qX c #84CA54",
"wX c #8BCB53",
"eX c #85C35B",
"rX c #8CC25C",
"tX c #83CB5B",
"yX c #8BCA5D",
"uX c #91C255",
"iX c #94CA57",
"pX c #94C25B",
"aX c #9BC45C",
"sX c #9BCC5B",
"dX c #8BD259",
"fX c #A0C25A",
"gX c #85C263",
"hX c #8BC563",
"jX c #8BCB63",
"kX c #8BC26A",
"lX c #88C86B",
"zX c #94C362",
"xX c #9AC365",
"cX c #93CB64",
"vX c #9BCB63",
"bX c #94C46A",
"nX c #9BC36B",
"mX c #93CD6D",
"MX c #93CD6E",
"NX c #9BCA6E",
"BX c #8AD467",
"VX c #9AC776",
"CX c #A2C364",
"ZX c #A2C16B",
"AX c #A9C66A",
"SX c #ABC677",
"DX c #A4CA73",
"FX c #B0CF7D",
"GX c #B3C786",
"HX c #ABD583",
/* pixels */
"R W F.S.< r.a.M.Q.M.j. X'.y M.`.:X2X'.G.g.#X .W d.j.E.rX[.] ] #.~ 9 5 eX] B.N.[ v.n.V.].R.0 j.v.0.m.",
"> R T e Q j.s y ^ F. .T.^.~  .E.v.R./.!.j.zX+X[ W ^.Q.gX^.| x _ u W ] X.E v.aX_.A.A.d.b.].j.j.f q.A.",
"$ O * 9 I Y r e e f M.E.eXj. .M.^ r v.R.F.T.$.,.] $.[ X.] w y j g /.k.g f.M Z.Z.V.).[._.].`.i 8.9.v.",
"2 7 s y 0 2 y ] d.R.E.wXB.d.v.V.!.^ @XSX%X^.eXX.g [ T hX9XN. .f N C.s.< f.0.l..Xc.N.CX>X[.x.7.i h.8.",
"O 9 [ M.y O g E.T.M.M n.} p } V.R./.j.J.4XGX!.a.v.'.].^.R.].N.m._.}.|..X.X.Xe.C..X.X1XZXNX0.A.> W } ",
"w x _ _ } n.uX| B.] f t m _ y m 2.$XG.G.$X].N.6XV.zX].B.W.wXn.V.V.9.c.A._.C.c.C.<XXX X%XfX_.}.N.E.] ",
"q w x { | w [ [ } X.N.^.$.| [ E [ j.+XrXE.n.| tXqXeXQ.W.^.).W.M.[ M.).N.b.c.f.f.,X#XR.d.c.2X}.].T.E.",
"m y 7 m M.s ^ } ] ( 9 E.Q T T ^  .! J.T...,.| v.[ v.V./.rX[./.M.x.x.[.v.9.I.I.c.(.%Xk.N.k.[.].V.M.^.",
"f 0 0 u a w [ V.[ q $ [ g.T T !.U.D.g.T m 6XF.> j.N.B.Z.N. .].Z.Z.L.{.c.x.x.c.{.z.Q.R N.J k. . .rXrX",
", $ s f 0.W b.d. .9.d v.R.+Xo.y.j.m V.T.] w N.R j.E.[ d.M B.pX[ /.b..X|./.N.l.l.0.b.a.D F @ + H `.^ ",
"y R ^.rXV.v.i W eXE.j.X.~ %.J.O.@.z [ R.T 9 7X{ B ).6Xf ] } E.r v.d..X_.xX^.l.i 8.0.R.%.&.! @XJ.G F.",
"F.F.$X].^.g : W ^ | Z.M.E T.@XnX%.Q T.$.{ B cXB.v.b.V.CXC.D.XXZ._.7Xm.8XXXXXl.0.c.L.k.-X*XnXR.y %.`.",
"P.y.T W F.I Y s W.X. .$.f T.zXpXJ.K Q.+.Y e |  .k.v.V.V.>X}.Z./.N.n.B b.w.m.0.8. X.Xb.aXaXA.wXX.3.tX",
"8.R T W y ] z w W | ] 4 I [  .W ^ < ] Y / e m { [ m X.R.%X/.v.X.g 9.n 8 q.n q.w v.9.a 9.v.M. .B.9X^.",
"0 q T N.x z j _ f W q 2 r T T.W ] r W M.>._ h ;.| ~ X.N.G.uX^.[ 8.i [ b n 5XB.M [ n 7 7 p ..~.#.%.R.",
"m q x ] Y Y n ] s w m 4 o.$.$XF.r W d.W { _ N x M.k.W * > W.uXN._.m.-.X.w.m.6XhXjX_.d.u T +.^.R.xX>X",
"v w w [ V...x y n.p [  .^.T.^.gX2.l ^.[ u E.^ 7 n n b ^.K.N.T T. .] ] X. .W.wX~.cXzXNXmX&.y eXeXsXZX",
"3 5 z x .._ z z N ] N G.,. .T.X.0XN $.g p g W ] M 9.v.E.V.mX$XG.[ W &.X.M.uX9X%.^.rXT.+.1._ X.~.~.Q.",
"= e Y ~ 0 t / | ,.] } [ m m M } n.w _ ] m | ^.M.d j.R.| ..2.} B g rXeX2.jXrXT.Q.G.$X$X~ U Y | T.E.| ",
"j.k.!.F.s } I E { _ X.f  .y j N uXb ] v.-...9X0XW [ W.E rXM.] W r | X.X.9XB.T.+X`.@XbX@.| f &.M.B...",
"g.z.G.x.a 7XW.V.{ -.n.E.uX$.} 7XW.w.CXsXCX6X2.tX~.W j. .f E &.~ I T y Y $.^ T +X@XU.$X^.zXm.n./.R.B.",
"W.E.0XA.b.m.sXN.W.yXb j.: n.wXwXl a m.b.V.0XT.T.^ j.N.-.X.OXgXgX+XOXOXO.F.o.&.Q.U.`.T.T.j.N.R R R  .",
"yXA ,.5X7X)._.DX/.V._.uX9.w.w.9.0 m.B.T.X.| o.+XeXbXnXT.Q.Q.Q.&XHX&XO.h.G.*XbX`.Y.oXG H j.Q I Q ^ ] ",
"} V.T.T./.].xX9XV.'.>X8Xn.m.n.k.b.aX_.R.[ W X.6.BXmXgX%.OX!.U.@XDX=X`./.`.^.`.'.j.+XJ.! j.S.K F.T + ",
"R k.r  .AXxXaX .f.I.CXE.B.[ 9XW `.pX).^.T.!.eX6.OXkXlXOXlX^.Q.0XrX$X#XzXJ.W E.0XM.bX$X!.k.Q.hXE.^ H ",
"K.h., ^ /.[.XX[.N.Y.,XqXV.[ ..d M.T.| !.OXnXVX6.~.lXlXkXbX].R.E.,.X.pXhXR.~ 6X6XB.].^.^.rXeXyXqXB.] ",
">X1X'.).n.V._.).0XN.).iXA.V.0X). .%.^.VXSX1X4XbXkXOX%.T.} ^.R.].X.V.0 ,.rXpX6XA M R.E.9XeX} T.E.} r ",
"V.aX_.Z.n.T.h.g v.m n N eX-.N ,.+XhXrX>XZX$XGX6.kXkX&.2.N.tX).CX].9XR.rXcXvX7Xb B ,._ kX=Xy.x.h.Y.J ",
"< d.W _.W.Q.d.f.< q.b z q 4 9 4 ' eXjXrX~.yXlX' VXVXjX..$.$X!.hXmX6.9X2.,.n.-.k j B.T.$XkX^.<X/.A.N.",
"8.M ] g 0 $.- > 9.v.b ,. .rX9X_ / ~...$.1.gX..' MX3.jX..I B.eX~.~.eXN  . .W.} >._ | j.M.$.+XR.v.p d.",
"b.f f 9.; / = J j.T.n.X.X.yXB.{ #.$.Z *.*.<.3.eXtXC >.X.rX$. .9XQ.( k.J Y ] E.X...Y E y H F j.X.N. X",
"k.N.T. .$.{ =.6XtXeXT.R j >...m 5.} -.v v v I  .] y 9./.zX~.+X9XzXxX@XG.OXW ^ ~ X.E I F S . ^ M.P.-X",
"d.^.lX#.%.g >.*.3.;.w = O ( { 2.5.-.B w 3 3 ' m : r * ].^.%X%XNXR.^.E.ZXNXeXE ^ M.^ F.T.o.T. .^ W |.",
"- 0 U 1.) h c L x j Z V h 9X..=.,.[ B w @ ..' >.,._ v y q B.E.yX$.p X.`.M.| T B.vX$XS.o.rXxXw v.A._.",
"i < ~ Q ( ] / #.] m v h C >._ 6 ,.I } =.=.BX@.3.3.,...( t M.B.[ 6X{ ;.[ ^ | X.B.rXSX@Xj.* | m  .n.m.",
"d g.$X^.B.[ $.B.,.N >.-.c =.} N eXw X.} _ X.!.N ] E -.9Xx 0Xn.X.X.w k [ 9X| $.$. .xXNX2.OX+.] | ] W ",
"M.].).)._.M s n.N } BX[ k v 9XA B B -.-.{ v.0X>.;.{ :.dX| eXX.X.( h x eXB.| gX~.N M.vX,.%.@.} _ y 0 ",
"Z.R.M.f./.b N } p m dXx N { | B n.d.:.A -.n.dX6X:.dXdX3.] ^ !.~ / 0 ..bX..] E.n.l N B.-.[ [ B.m 0  .",
"b.0.s G.^.v $ w } %X .mXpX{ F., b n.:.} ,.B c X.-.v *.<.} b 6X^ Y 9 q ^ e z U } 7 x =.<.,.} m 0XJ J ",
"p q N cX$XT B.-.B.].W.6XA _ Q ; -.qXv.0XmX^ O b n / 5 C v., 9 u W + ^ Z.R S.g.F _ >.E.m T D ! R.`.d.",
"W o x cXW.zXR.n.m.Z.9.- j ( $.m x y j M.@X=X .X = e X # & t.G > > . G.! > H > % r H K H ; ! & e @ + ",
"9.$ x <.cX[ } B.M d - 4 _ 9XX.p Q.nXN., J.*X#Xo.| %.r & & i.L.K.z.L.x.Q.F.! y.% & S t.t.S y.G G H G ",
"7.g _ / _ $ O 0 } n.M._ ( 6XcXE.* O.yX$.pX*X4X*X^.DX.Xc.|.;X;XY.{.|.c.'.Q.!.!.G t.y.u.t.K.r.t.i.L.U.",
"# - I +.y 5 q L @ z  .s ] wXBXFXf @ ] tXvXAX-XHXDXSX2X2X2X3X2X2X>X|.;X_.D.'.>X<X4X1X:XK.H.i.L.:X#XP.",
"O H @.` q 1 ) 6 L U h.sXT ~.gX1.y T X.jX<.7X0XdXsXxXsXA.V.W.I.:X XK.2X|.|.[.>X#XpX`.SX<XK.i.;Xc.R.P.",
"y T x 2 t P P o O ..q 5X; +.$.2.jXbXmXgXI O :.} M.R.yXwX9X].<XP.K.e.'.,XAXAX_.x.>XP.`.R.g.p.3X7.J r.",
"! J { q 2 1 e @ @ Q ] X.G !.$.^.1XFXeXeXD.a.sXZ.j.^ 9XrXu.k.P.D.oX|.[.>X1X>Xx.a.Y.`.oXu.H.oX-Xt.P.j.",
"|  .] h 6 3 E ! u.y.1.E.g.P.M._.CXnXeX| T.'.SX:XT.^.eXnXoX`.N.Y.P.x. XXXVX$XN.`.z./.Y.K.D.J.H.u.N.j.",
"@ { y z c 9X0X@.u.O.U @.~./.].V.B.E.X.T._./.W.$XQ.eX4.zXxX#.| h.k.).A.W +X^.j./.h./.k.N./.H.&X@XW.g ",
"  x v ' X.$.5.4.+XhXJ.T.Q.*X%XxX].hX&.bXxXM.X.~.@.%.( X. .| M.[.XXN.v.Z.D.^ D.P.j.y.s I  .oXJ.J.v.f "
};
