/* XPM */
static char *result[] = {
/* columns rows colors chars-per-pixel */
"50 50 218 2 ",
"   c #3E2723",
".  c #422A27",
"X  c #49302A",
"o  c #4A302B",
"O  c #4A312B",
"+  c #4D342F",
"@  c #4E3631",
"#  c #503833",
"$  c #543831",
"%  c #553832",
"&  c #563A33",
"*  c #503934",
"=  c #513A35",
"-  c #523A34",
";  c #523B36",
":  c #573B35",
">  c #5D4037",
",  c #5E4138",
"<  c #5E443E",
"1  c #60443B",
"2  c #67473D",
"3  c #604742",
"4  c #624A44",
"5  c #624A45",
"6  c #634B45",
"7  c #644C47",
"8  c #6B4C42",
"9  c #6E5249",
"0  c #6C524B",
"q  c #6C534B",
"w  c #6B534C",
"e  c #775347",
"r  c #785447",
"t  c #715249",
"y  c #71544B",
"u  c #795548",
"i  c #7A5648",
"p  c #7A5649",
"a  c #7A5749",
"s  c #7B5749",
"d  c #7A564A",
"f  c #7A574A",
"g  c #7B574A",
"h  c #7B584A",
"j  c #7B584B",
"k  c #7B594B",
"l  c #7C584B",
"z  c #7B594C",
"x  c #7C594C",
"c  c #7D594C",
"v  c #7D594D",
"b  c #7D5A4D",
"n  c #7D5A4E",
"m  c #7E5B4F",
"M  c #7E5C4E",
"N  c #7E5C4F",
"B  c #705750",
"V  c #725B53",
"C  c #735C55",
"Z  c #745C55",
"A  c #785D53",
"S  c #7E5C50",
"D  c #7F5C50",
"F  c #7E5D50",
"G  c #7F5D50",
"H  c #7F5D51",
"J  c #79605A",
"K  c #7D635A",
"L  c #805D50",
"P  c #805D51",
"I  c #805E51",
"U  c #805D52",
"Y  c #815E52",
"T  c #805F52",
"R  c #815F52",
"E  c #815F53",
"W  c #816053",
"Q  c #826053",
"!  c #816054",
"~  c #816155",
"^  c #826054",
"/  c #826155",
"(  c #836155",
")  c #836255",
"_  c #836256",
"`  c #846257",
"'  c #846357",
"]  c #846457",
"[  c #856457",
"{  c #836358",
"}  c #846358",
"|  c #856358",
" . c #836458",
".. c #846458",
"X. c #856559",
"o. c #866559",
"O. c #86655A",
"+. c #86655B",
"@. c #86665A",
"#. c #87665A",
"$. c #87675B",
"%. c #87675C",
"&. c #87685B",
"*. c #87685C",
"=. c #88685C",
"-. c #89685C",
";. c #88695D",
":. c #89695D",
">. c #88695E",
",. c #89695E",
"<. c #8A695F",
"1. c #896A5E",
"2. c #8A6A5F",
"3. c #8A6B5F",
"4. c #836A63",
"5. c #846B64",
"6. c #866F66",
"7. c #8A6B60",
"8. c #8B6C60",
"9. c #8B6C61",
"0. c #8B6D62",
"q. c #8C6C61",
"w. c #8C6D63",
"e. c #8D6E62",
"r. c #8C6E63",
"t. c #8D6E63",
"y. c #8D6F63",
"u. c #8D6F64",
"i. c #8D6F65",
"p. c #8E6F64",
"a. c #8E6F65",
"s. c #8E7064",
"d. c #8E7065",
"f. c #8E7166",
"g. c #8F7166",
"h. c #8F7266",
"j. c #8F7268",
"k. c #907166",
"l. c #907267",
"z. c #907268",
"x. c #917369",
"c. c #907468",
"v. c #917469",
"b. c #90746A",
"n. c #91746A",
"m. c #92746A",
"M. c #92756B",
"N. c #93756B",
"B. c #92766B",
"V. c #93766B",
"C. c #93756C",
"Z. c #93766C",
"A. c #93776C",
"S. c #94776D",
"D. c #95786D",
"F. c #94786E",
"G. c #95786E",
"H. c #94786F",
"J. c #95796F",
"K. c #96796F",
"L. c #967A6F",
"P. c #967970",
"I. c #967A70",
"U. c #967B71",
"Y. c #977B71",
"T. c #977B72",
"R. c #977C72",
"E. c #977C73",
"W. c #987C71",
"Q. c #987C72",
"!. c #997D73",
"~. c #987D74",
"^. c #997D74",
"/. c #987D75",
"(. c #997E74",
"). c #987E75",
"_. c #997E75",
"`. c #997F75",
"'. c #9A7E75",
"]. c #997F77",
"[. c #9A7F76",
"{. c #9A8075",
"}. c #9B8075",
"|. c #9A8076",
" X c #9A8077",
".X c #9B8177",
"XX c #9C8077",
"oX c #9C8178",
"OX c #9C8179",
"+X c #9C8278",
"@X c #9C8279",
"#X c #9D8379",
"$X c #9D837A",
"%X c #9C837B",
"&X c #9D847A",
"*X c #9D847B",
"=X c #9E847B",
"-X c #9F847B",
";X c #9E857B",
":X c #9D847C",
">X c #9F847C",
",X c #9E857C",
"<X c #9F857D",
"1X c #9F867C",
"2X c #9F867D",
"3X c #9F867E",
"4X c #A0867D",
"5X c #A0877D",
"6X c #A0867E",
"7X c #A0877E",
"8X c #A0877F",
"9X c #A0887F",
"0X c #A1887F",
"qX c #A2887F",
"wX c #A18780",
"eX c #A08880",
"rX c #A18880",
"tX c None",
/* pixels */
"tXtXtXtXtXtXtXtXtXtXtXtXtXtXtXtXtXtXtXtXtXtXtXtXtXtXtXtXtXtXtXtXtXtXtXtXtXtXtXtXtXtXtXtXtXtXtXtXtXtX",
"tXtXtXtXtXtXtXtXtXtXtXtXtXtXtXtXtXtXtXtXtXtXtXtXtXtXtXtXtXtXtXtXtXtXtXtXtXtXtXtXtXtXtXtXtXtXtXtXtXtX",
"tXtXtXtXtXtXtXtXtXtXtXtXtXtXtXtXtXtXtXtXtXtXtXtXtXtXtXtXtXtXtXtXtXtXtXtXtXtXtXtXtXtXtXtXtXtXtXtXtXtX",
"tXtXtXtXtXtXtXtXtXtXtXtXtXtXtXtXtXtXtXtXtXtXtXtXtXtXtXtXtXtXtXtXtXtXtXtXtXtXtXtXtXtXtXtXtXtXtXtXtXtX",
"tXtXtXtXtXtXtXtXtXtXtXtXtXtXtXtXtXtXtXtXtXtXtXtXtXtXtXtXtXtXtXtXtXtXtXtXtXtXtXtXtXtXtXtXtXtXtXtXtXtX",
"tXtXtXtXtXtXtXtXtXtXtXtXtXtXtXtXtXtXtXtXtXtXtXtXtXtXtXtXtXtXtXtXtXtXtXtXtXtXtXtXtXtXtXtXtXtXtXtXtXtX",
"tXtXtXtXtXtXtXtXtX9XB.! ! }.0X0Xv.! $.(.H.! $.*X= = *X0X0XW.! ! / -X0X0X0X:.! ] rXtXtXtXtXtXtXtXtXtX",
"tXtXtXtXtXtXtX7.u T.,Xg u Z.0X0Xd.u T 0XT.u O.:X    :X0X0X9.u u p.0X0X0X0Xz u ` 0X0X9XtXtXtXtXtXtXtX",
"tXtXtXtXtXtXtXG.u <.0X1.u 3.0X0Xz.u j 7XN.u 8.:X    :X0X6Xx u k 1X0X0X0X.Xu u ,.0X0X0XtXtXtXtXtXtXtX",
"tXtXtXtXtXtX9X@Xu l 6XXXu b 7X0XF.u u [.,.u t.:X    :X0XS.u u <.0X0X0X0XP.u u <.0X0X0XrXtXtXtXtXtXtX",
"tXtXtXtXtXtX0X0Xc u G.0X..u Q.0XoXu u I d u f.:X    :X0X:.u u C.0X0X0X0Xx.u u :.0X0X0X0XtXtXtXtXtXtX",
"tXtXtXtXtXtXqX0X` u *.0XI.u *.0X7Xb u u u u u.:X    :X0XR u u R.0X0X0X0Xa.u u ' 0X0X0XqXtXtXtXtXtXtX",
"tXtXtXtXtXtXqX0X9.u z 7X7XF a =X0X=.u u u u 9.:X    :X0Xc u u T.0X0X0X0Xy.u u m 0X0X0XqXtXtXtXtXtXtX",
"tXtXtXtXtXtXqX0XV.u u Y.0Xd.u g.0XS.u u u u #.:X    :X0Xi u u V.0X0X0X0Xw.u u u +X0X0XqXtXtXtXtXtXtX",
"tXtXtXtXtXtXqX0X{.u u 8.0X*Xa N 0X6Xx u u u L :X    :X0Xi u u 9.0X0X0X0Xg.u u u c.0X0XqXtXtXtXtXtXtX",
"tXtXtXtXtXtXqX0X7Xd u N 0X0X$.u L.0X9.u u u u ].    :X0Xp u u G 0X0X0X0XC.u u u ^ 0X0XqXtXtXtXtXtXtX",
"tXtXtXtXtXtXqX0X0XI u u XX0XY.u ) 0X.Xi u u u j.    :X0Xv u u u ~.0X0X0XT.u u u u ^.0XqXtXtXtXtXtXtX",
"tXtXtXtXtXtX6.5.5.t 2 2 A 5.4.8 2 K 5.y 2 2 2 9     :X0XR u u u %.0X0X0X2Xp u u u _ 0XqXtXtXtXtXtXtX",
"tXtXtXtXtXtX-                                       :X0X| u u u i  X0X0X0X( u u u u z.qXtXtXtXtXtXtX",
"tXtXtXtXtXtX3 ; ; @ o o O ; ; * o o # ; + o o X     :X0X1.u u u u @.0X0X0Xu.u u u u p k.tXtXtXtXtXtX",
"tXtXtXtXtXtXqX0X0Xv.u u u _.0X0XT u X.0X$Xj u e     :X0Xl.u u u u u K.0X0X$Xp u u u u W tXtXtXtXtXtX",
"tXtXtXtXtXtXqX0X0XZ.u u u v.0X0Xg.u i (.0Xz.u e     :X0XU.u u u u u m 2X0X0X3.u u u u W tXtXtXtXtXtX",
"tXtXtXtXtXtXqX0X0XV.u u u 2.0X0X$Xu u ] 0X8XE e     ).0X=Xu u n q.p u u.0X0X>XN u u u W tXtXtXtXtXtX",
"tXtXtXtXtXtXqX0X0XM.u u u / 0X0X0X( u u R.0X!.r      .0X0Xv u Q 0Xn.u b 7X0X0X'.x u u W tXtXtXtXtXtX",
"tXtXtXtXtXtXqX0X0Xd.u u u c 0X0X0Xi.u u ! 7X0X7.    e I.0X@.u p oX7XT u (.0X0X0X|.P u W tXtXtXtXtXtX",
"tXtXtXtXtXtXqX0X0X2.u u u i 7X0X0X(.u u u G.0X%X    e P 7XK.u u ' 7Xq.u p.0X0X0X0X5Xd...tXtXtXtXtXtX",
"tXtXtXtXtXtXqX0X0X! u u u u #X0X0X7Xb u u I 0X:X    e u z.0X} u u ! H u ^ 0X0X0X0X0X0XqXtXtXtXtXtXtX",
"tXtXtXtXtXtXqX0X1Xp u u u u _.0X0X0X=.u u u V.:X    e u x 1XOXh u u u u p ,X0X0X0X0X0XqXtXtXtXtXtXtX",
"tXtXtXtXtXtXqX0XL.u u u u u P.0X0X0XZ.u u u D %X    ~ u u t.0XS.u u u u u A.0X0X0X0X0XqXtXtXtXtXtXtX",
"tXtXtXtXtXtXqX0X0.u u u u u A.0X0X0X-Xi u u u b.    /.d u j <X0Xi.u u u u ..0X0X0X0X0XqXtXtXtXtXtXtX",
"tXtXtXtXtXtXqX0X! u u u u u x.0X0X0X0XI u u u S     :X2.u u l.0X7X%.u u u p $X0X0X0X0XqXtXtXtXtXtXtX",
"tXtXtXtXtXtXqX3Xp u p d.u u g.0X0X0X0X;.u u u e     :XOXi u M 7X0X5X^ u u u u.0X0X0X0XqXtXtXtXtXtXtX",
"tXtXtXtXtXtXqXT.u u ' 0XY u t.0X0X0X0Xx.u u u e     :X0X' u u K.0X0X&Xn u u c 4X0X0X0XqXtXtXtXtXtXtX",
"tXtXtXtXtXtXqXg.u u 0.0X=.u 8.0X0X0X0XT.u u u e     :X0XM.u u 7.0X0X0X(.f u u z.0X0X0XqXtXtXtXtXtXtX",
"tXtXtXtXtXtXqX3.u u g.0X9.u 9.0X0X0X0X#Xu u u e     7 6 5 % $ : 6 6 6 6 < $ $ & 4 6 6 w tXtXtXtXtXtX",
"tXtXtXtXtXtXqXO.u u l.0Xe.u r.0X0X0X0X0Xa u u e     .                                 - tXtXtXtXtXtX",
"tXtXtXtXtXtXqX&.u u i.0X7.u f.0X0X0X0X0Xv u u e     Z C C q > > 0 C C C C V 1 > , B C J tXtXtXtXtXtX",
"tXtXtXtXtXtXqX8.u u :.0X..u n.0X0X0X0X0Xn u u e     :X0X0X=Xu u 3.0X0X0X0X0XI.u u Q 7XqXtXtXtXtXtXtX",
"tXtXtXtXtXtXqXd.u u N 3Xz u T.0X0X0X0X0Xb u u e     :X0X0X0XR u U 0X0X0X0X0X0X` u u r.qXtXtXtXtXtXtX",
"tXtXtXtXtXtX0X!.u u u n u u $X0X0X0X0X6Xi u u e     :X0X0X0X9.u p 5X0X0X0X0X0X`.u u u D.tXtXtXtXtXtX",
"tXtXtXtXtXtX9X0Xn u u u u D 0X0X0X0X0X[.u u u e     :X0X0X0XG.u u (.0X0X0X0X0X0X| u u [ tXtXtXtXtXtX",
"tXtXtXtXtXtXtX0Xs.u u u u 7.0X0X0X0X0Xg.u u u r     :X0X0X0XoXu u m.0X0X0X0X0X0XS.u u tXtXtXtXtXtXtX",
"tXtXtXtXtXtXtXwX*Xa u u u J.0X0X0X0X*Xb u u u {     :X0X0X0X0Xs u t.0X0X0X0X0X0X4Xs +.tXtXtXtXtXtXtX",
"tXtXtXtXtXtXtXtXtX>.! ! ! ;X0X0X0X1X-.! ! ! ! E.= = *X0X0X0X0Xo.! h.0X0X0X0X0X0XeXtXtXtXtXtXtXtXtXtX",
"tXtXtXtXtXtXtXtXtXtXtXtXtXtXtXtXtXtXtXtXtXtXtXtXtXtXtXtXtXtXtXtXtXtXtXtXtXtXtXtXtXtXtXtXtXtXtXtXtXtX",
"tXtXtXtXtXtXtXtXtXtXtXtXtXtXtXtXtXtXtXtXtXtXtXtXtXtXtXtXtXtXtXtXtXtXtXtXtXtXtXtXtXtXtXtXtXtXtXtXtXtX",
"tXtXtXtXtXtXtXtXtXtXtXtXtXtXtXtXtXtXtXtXtXtXtXtXtXtXtXtXtXtXtXtXtXtXtXtXtXtXtXtXtXtXtXtXtXtXtXtXtXtX",
"tXtXtXtXtXtXtXtXtXtXtXtXtXtXtXtXtXtXtXtXtXtXtXtXtXtXtXtXtXtXtXtXtXtXtXtXtXtXtXtXtXtXtXtXtXtXtXtXtXtX",
"tXtXtXtXtXtXtXtXtXtXtXtXtXtXtXtXtXtXtXtXtXtXtXtXtXtXtXtXtXtXtXtXtXtXtXtXtXtXtXtXtXtXtXtXtXtXtXtXtXtX",
"tXtXtXtXtXtXtXtXtXtXtXtXtXtXtXtXtXtXtXtXtXtXtXtXtXtXtXtXtXtXtXtXtXtXtXtXtXtXtXtXtXtXtXtXtXtXtXtXtXtX"
};
