/* XPM */
static char *result[] = {
/* columns rows colors chars-per-pixel */
"48 48 98 2 ",
"   c #263238",
".  c #273338",
"X  c #2A3539",
"o  c #2B3539",
"O  c #2D3638",
"+  c #2E3639",
"@  c #2F3739",
"#  c #313839",
"$  c #4E332E",
"%  c #4D342E",
"&  c #4E342E",
"*  c #51362F",
"=  c #51372F",
"-  c #573A30",
";  c #583C30",
":  c #5A3D30",
">  c #43433B",
",  c #45453B",
"<  c #4F4B3B",
"1  c #59513D",
"2  c #614231",
"3  c #624332",
"4  c #664532",
"5  c #664633",
"6  c #61563E",
"7  c #6B5C3E",
"8  c #6E5E3F",
"9  c #76633F",
"0  c #37464F",
"q  c #36474F",
"w  c #37474F",
"e  c #38474F",
"r  c #37484F",
"t  c #374750",
"y  c #384750",
"u  c #414C4F",
"i  c #444E4F",
"p  c #47504E",
"a  c #48514F",
"s  c #55574E",
"d  c #54584F",
"f  c #64604E",
"g  c #7C6640",
"h  c #7D6741",
"j  c #7E6840",
"k  c #73694E",
"l  c #815937",
"z  c #815A37",
"x  c #835A37",
"c  c #865D38",
"v  c #875E38",
"b  c #885F38",
"n  c #8A6038",
"m  c #A6753D",
"M  c #826B41",
"N  c #836B41",
"B  c #82714E",
"V  c #947643",
"C  c #9A7E4E",
"Z  c #48994F",
"A  c #489A4F",
"S  c #489F4F",
"D  c #499F50",
"F  c #4AA550",
"G  c #4BAB50",
"H  c #4CAF50",
"J  c #FFA725",
"K  c #FFA626",
"L  c #FFA726",
"P  c #A98344",
"I  c #B58A46",
"U  c #BC8D46",
"Y  c #B48D4D",
"T  c #B48D4E",
"R  c #BF9046",
"E  c #CC9144",
"W  c #CC9244",
"Q  c #CD9948",
"!  c #CE9C4D",
"~  c #E0A34A",
"^  c #E5A449",
"/  c #E5A74B",
"(  c #EBA849",
")  c #ECA94A",
"_  c #ECAA4A",
"`  c #EBAC4D",
"'  c #EDAC4C",
"]  c #ECAD4D",
"[  c #F0AE4C",
"{  c #F6B24C",
"}  c #F8B34D",
"|  c #FCB64D",
" . c #FFB74C",
".. c #FFB64D",
"X. c #FFB74D",
"o. c #FFB74E",
"O. c #FFB84D",
"+. c None",
/* pixels */
"+.+.+.+.+.+.+.+.+.+.+.+.+.+.+.+.+.+.+.+.+.+.+.+.+.+.+.+.+.+.+.+.+.+.+.+.+.+.+.+.+.+.+.+.+.+.+.+.",
"+.+.+.+.+.+.+.+.+.+.+.+.+.+.+.+.+.+.+.+.+.+.+.+.+.+.+.+.+.+.+.+.+.+.+.+.+.+.+.+.+.+.+.+.+.+.+.+.",
"+.+.+.+.+.+.+.+.+.+.+.+.+.+.+.+.+.+.+.+.+.+.+.+.+.+.+.+.+.+.+.+.+.+.+.+.+.+.+.+.+.+.+.+.+.+.+.+.",
"+.+.+.+.+.+.+.+.+.+.+.+.w w w w w w w w w w w w w w w w w w w w w w w w +.+.+.+.+.+.+.+.+.+.+.+.",
"+.+.+.+.+.+.+.+.+.+.+.+.w w w w w w w w w w w w w w w w w w w w w w w w +.+.+.+.+.+.+.+.+.+.+.+.",
"+.+.+.+.+.+.+.+.+.+.+.+.w w w w w w w w w w w w w w w w w w w w w w w w +.+.+.+.+.+.+.+.+.+.+.+.",
"+.+.+.+.+.+.+.+.+.+.+.+.w w w w w w w w w w w w w w w w w w w w w w w w +.+.+.+.+.+.+.+.+.+.+.+.",
"+.+.+.+.+.+.+.+.+.+.+.+.w w w w w w w w w w w w w w w w w w w w w w w w +.+.+.+.+.+.+.+.+.+.+.+.",
"+.+.+.+.+.+.+.+.+.+.+.e w w w w w w w w w w w w w w w w w w w w w w w w q +.+.+.+.+.+.+.+.+.+.+.",
"+.+.+.+.+.+.+.+.+.+.+.0 w w w w w w w w w w w w w w w w w w w w w w w w e +.+.+.+.+.+.+.+.+.+.+.",
"+.+.+.+.+.+.+.+.+.+.+.r w w w w w w w w w w w w w w w w w w w w w w w w y +.+.+.+.+.+.+.+.+.+.+.",
"+.+.+.+.+.+.+.+.+.+.+.A H H H H H H H H H H H H H H H H H H H H H H H H Z +.+.+.+.+.+.+.+.+.+.+.",
"+.+.+.+.+.+.+.+.+.+.+.S H H H H H H H H H H H H H H H H H H H H H H H H D +.+.+.+.+.+.+.+.+.+.+.",
"+.+.+.+.+.+.+.+.+.+.+.F H H H H H H H H H H H H H H H H H H H H H H H H F +.+.+.+.+.+.+.+.+.+.+.",
"+.+.+.+.+.+.+.+.+.+.+.G H H H H H H H H H H H H H H H H H H H H H H H H G +.+.+.+.+.+.+.+.+.+.+.",
"+.+.w w w w w w w w w w w w w w w w w w w w w w w w w w w w w w w w w w w w w w w w w w w w +.+.",
"+.+.+.t w w w w w w w w w w w w w w w w w w w w w w w w w w w w w w w w w w w w w w w w w +.+.+.",
"+.+.+.+.+.+.r w w w w w w w w w w w w w w w w w w w w w w w w w w w w w w w w w w w +.+.+.+.+.+.",
"+.+.+.+.+.+.+.+.+.q w p w w w w w w w w w w w w w w w w w w w w w w w w a w q +.+.+.+.+.+.+.+.+.",
"+.+.+.+.+.+.+.+.+.+.+.X.` ! T C B k f d a i u w w u i a s f k B C Y ! ] X.+.+.+.+.+.+.+.+.+.+.+.",
"+.+.+.+.+.+.+.+.+.+.J X.X.X.X.X.X.X.X.X.X.X.X.X.X.X.X.X.X.X.X.X.X.X.X.X.X.L +.+.+.+.+.+.+.+.+.+.",
"+.+.+.+.+.+.+.+.+.L L ,                                                 > L L +.+.+.+.+.+.+.+.+.",
"+.+.+.+.+.+.+.+.J L L M                       X O                       g L L L +.+.+.+.+.+.+.+.",
"+.+.+.+.+.+.+.+.K L L R                       U ~ o                     I L L L +.+.+.+.+.+.+.+.",
"+.+.+.+.+.+.+.+.L L L { O                   1 X.X.h                   . ' L L L +.+.+.+.+.+.+.+.",
"+.+.+.+.+.+.+.+.L L L X.6                   Q X.X./ o                 < X.L L J +.+.+.+.+.+.+.+.",
"+.+.+.+.+.+.+.+.+.L L X.P                 7 X.X.X.X.N                 V X.L L +.+.+.+.+.+.+.+.+.",
"+.+.+.+.+.+.+.+.+.+.L X.| N #         + 8 [ X.X.X.X.} j #         @ 9 } X.J +.+.+.+.+.+.+.+.+.+.",
"+.+.+.+.+.+.+.+.+.+.+.X.X.X.X.X.X.X.X.X.X.X.X.X.X.X.X.X.X.X.X.X.X.X.X.X.X.+.+.+.+.+.+.+.+.+.+.+.",
"+.+.+.+.+.+.+.+.+.+.+.X.X.X.X.X.X.X.X.X.X.X.X.X.X.X.X.X.X.X.X.X.X.X.X.X.X.+.+.+.+.+.+.+.+.+.+.+.",
"+.+.+.+.+.+.+.+.+.+.+.X.X.X.X.X.X.X.X.X.X.X.X.X.X.X.X.X.X.X.X.X.X.X.X.X.X.+.+.+.+.+.+.+.+.+.+.+.",
"+.+.+.+.+.+.+.+.+.+.+.X.X.X.X.X.X.X.) b - & & & & & & - v ^ X.X.X.X.X.X.X.+.+.+.+.+.+.+.+.+.+.+.",
"+.+.+.+.+.+.+.+.+.+.+...X.X.X.X.X.) : & & & & & & & & & & : _ X.X.X.X.X.X.+.+.+.+.+.+.+.+.+.+.+.",
"+.+.+.+.+.+.+.+.+.+.+. .X.X.X.X.X.b & & & & & & & & & & & & n X.X.X.X.X.O.+.+.+.+.+.+.+.+.+.+.+.",
"+.+.+.+.+.+.+.+.+.+.+.+.X.X.X.X.X.- & & & & & & & & & & & & ; X.X.X.X.X.+.+.+.+.+.+.+.+.+.+.+.+.",
"+.+.+.+.+.+.+.+.+.+.+.+.X.X.X.X.X.& & z ) X.X.X.X.X.X.) l & & X.X.X.X.X.+.+.+.+.+.+.+.+.+.+.+.+.",
"+.+.+.+.+.+.+.+.+.+.+.+.+.X.X.X.X.& & ) X.X.X.X.X.X.X.X.( & & X.X.X.X.+.+.+.+.+.+.+.+.+.+.+.+.+.",
"+.+.+.+.+.+.+.+.+.+.+.+.+.o.X.X.X.& & X.X.X.E 2 2 W X.X.X.& & X.X.X.+.+.+.+.+.+.+.+.+.+.+.+.+.+.",
"+.+.+.+.+.+.+.+.+.+.+.+.+.+.O.X.X.& & m X.X.2 & & 3 X.X.m & & X.X.X.+.+.+.+.+.+.+.+.+.+.+.+.+.+.",
"+.+.+.+.+.+.+.+.+.+.+.+.+.+.+...X.= & & m X.& & & & X.m & & = X.O.+.+.+.+.+.+.+.+.+.+.+.+.+.+.+.",
"+.+.+.+.+.+.+.+.+.+.+.+.+.+.+.+.O.4 & & & m & & & & m & & & 5 X.+.+.+.+.+.+.+.+.+.+.+.+.+.+.+.+.",
"+.+.+.+.+.+.+.+.+.+.+.+.+.+.+.+.+.c & & & & & & & & & & & & x +.+.+.+.+.+.+.+.+.+.+.+.+.+.+.+.+.",
"+.+.+.+.+.+.+.+.+.+.+.+.+.+.+.+.+.+.= & & & & & & & & & & * +.+.+.+.+.+.+.+.+.+.+.+.+.+.+.+.+.+.",
"+.+.+.+.+.+.+.+.+.+.+.+.+.+.+.+.+.+.+.% & & & & & & & & & +.+.+.+.+.+.+.+.+.+.+.+.+.+.+.+.+.+.+.",
"+.+.+.+.+.+.+.+.+.+.+.+.+.+.+.+.+.+.+.+.$ & & & & & & & +.+.+.+.+.+.+.+.+.+.+.+.+.+.+.+.+.+.+.+.",
"+.+.+.+.+.+.+.+.+.+.+.+.+.+.+.+.+.+.+.+.+.+.+.+.+.+.+.+.+.+.+.+.+.+.+.+.+.+.+.+.+.+.+.+.+.+.+.+.",
"+.+.+.+.+.+.+.+.+.+.+.+.+.+.+.+.+.+.+.+.+.+.+.+.+.+.+.+.+.+.+.+.+.+.+.+.+.+.+.+.+.+.+.+.+.+.+.+.",
"+.+.+.+.+.+.+.+.+.+.+.+.+.+.+.+.+.+.+.+.+.+.+.+.+.+.+.+.+.+.+.+.+.+.+.+.+.+.+.+.+.+.+.+.+.+.+.+."
};
