/* XPM */
static char *b54af0517d6245c5b63e41350f598d85XU0CI0na5H5NehMq[] = {
/* columns rows colors chars-per-pixel */
"50 50 215 2 ",
"   c None",
".  c #2E3535",
"X  c #263238",
"o  c #273338",
"O  c #2A3539",
"+  c #2B3539",
"@  c #2D3638",
"#  c #2E3639",
"$  c #393A33",
"%  c #313839",
"&  c #4E342E",
"*  c #53362C",
"=  c #51372F",
"-  c #56382B",
";  c #5E3C2B",
":  c #573A30",
">  c #5A3D30",
",  c #43433B",
"<  c #45453B",
"1  c #59513D",
"2  c #6B4428",
"3  c #734826",
"4  c #614231",
"5  c #664532",
"6  c #664633",
"7  c #61563E",
"8  c #6B5C3E",
"9  c #6E5E3F",
"0  c #37464F",
"q  c #36474F",
"w  c #37474F",
"e  c #38474F",
"r  c #37484F",
"t  c #374750",
"y  c #384750",
"u  c #414C4F",
"i  c #444E4F",
"p  c #47504E",
"a  c #48514F",
"s  c #55574E",
"d  c #54584F",
"f  c #64604E",
"g  c #7C6640",
"h  c #7D6741",
"j  c #7E6840",
"k  c #73694E",
"l  c #8B4A1D",
"z  c #AD5613",
"x  c #AE5A13",
"c  c #A9631D",
"v  c #B0691A",
"b  c #B86D19",
"n  c #B96E19",
"m  c #885322",
"M  c #875E24",
"N  c #815A37",
"B  c #835A36",
"V  c #865D38",
"C  c #875E38",
"Z  c #885F38",
"A  c #A6753D",
"S  c #A8753B",
"D  c #DE6505",
"F  c #CA7C16",
"G  c #D37C14",
"H  c #EF6B00",
"J  c #EF6C00",
"K  c #EF6D00",
"L  c #EF6F00",
"P  c #F06C00",
"I  c #F06E01",
"U  c #F06F01",
"Y  c #F16F01",
"T  c #F06F03",
"R  c #F07001",
"E  c #F07101",
"W  c #F17101",
"Q  c #F07102",
"!  c #F07202",
"~  c #F17202",
"^  c #F17302",
"/  c #F27302",
"(  c #F17403",
")  c #F27403",
"_  c #F27503",
"`  c #F27603",
"'  c #F37603",
"]  c #F27703",
"[  c #F27704",
"{  c #F37904",
"}  c #F47804",
"|  c #F37C05",
" . c #F47C05",
".. c #F57E06",
"X. c #F57F06",
"o. c #F2790C",
"O. c #826B41",
"+. c #836B41",
"@. c #82714E",
"#. c #9A7E4E",
"$. c #48994F",
"%. c #489A4F",
"&. c #489F4F",
"*. c #499F50",
"=. c #4AA550",
"-. c #4BAB50",
";. c #4CAF50",
":. c #DE8111",
">. c #DC8113",
",. c #DC8413",
"<. c #E2800F",
"1. c #EB890F",
"2. c #F48007",
"3. c #F68007",
"4. c #F68107",
"5. c #F78107",
"6. c #F68207",
"7. c #F78307",
"8. c #F78108",
"9. c #F68308",
"0. c #F68408",
"q. c #F78408",
"w. c #F78608",
"e. c #F68609",
"r. c #F78609",
"t. c #F78709",
"y. c #F88508",
"u. c #F88609",
"i. c #F78A0A",
"p. c #F18D0E",
"a. c #F08C0F",
"s. c #F88809",
"d. c #F88909",
"f. c #F98909",
"g. c #F98A09",
"h. c #F9890A",
"j. c #F88A0A",
"k. c #F98A0A",
"l. c #F98B0A",
"z. c #F88C0B",
"x. c #F98C0B",
"c. c #F98D0B",
"v. c #FA8D0B",
"b. c #F88E0B",
"n. c #F98E0B",
"m. c #FA8E0B",
"M. c #FA8F0B",
"N. c #FB8F0B",
"B. c #FA8F0C",
"V. c #FB900B",
"C. c #F9900D",
"Z. c #FA900C",
"A. c #FB900C",
"S. c #FA910C",
"D. c #FB910C",
"F. c #FA910D",
"G. c #FB910D",
"H. c #FA920C",
"J. c #FB920C",
"K. c #FA920D",
"L. c #FB920D",
"P. c #FB930E",
"I. c #FC910C",
"U. c #FC920C",
"Y. c #E98C17",
"T. c #F48014",
"R. c #F88A10",
"E. c #F88E18",
"W. c #FB9410",
"Q. c #FB9411",
"!. c #FB9613",
"~. c #FB9715",
"^. c #F89618",
"/. c #FD9C1E",
"(. c #D2913A",
"). c #FD9F24",
"_. c #F8962A",
"`. c #F99B30",
"'. c #FFA725",
"]. c #FFA626",
"[. c #FFA726",
"{. c #FBA135",
"}. c #FEA832",
"|. c #FDA834",
" X c #FDAA37",
".X c #FBA338",
"XX c #FEAE3F",
"oX c #FFAF3F",
"OX c #A98344",
"+X c #B58A46",
"@X c #BC8D46",
"#X c #B48D4D",
"$X c #B48D4E",
"%X c #BF9046",
"&X c #CC9144",
"*X c #CD9948",
"=X c #CE9C4D",
"-X c #E0A34A",
";X c #E5A449",
":X c #E5A74B",
">X c #ECA94A",
",X c #EBAC4D",
"<X c #EDAC4C",
"1X c #ECAD4D",
"2X c #F0AE4C",
"3X c #FFB347",
"4X c #F6B24C",
"5X c #F8B34D",
"6X c #FCB64D",
"7X c #FFB74C",
"8X c #FFB64D",
"9X c #FFB74D",
"0X c #FFB74E",
"qX c #FFB84C",
"wX c #FFB84D",
/* pixels */
"                                                                                                    ",
"                                                                                                    ",
"                    w w w w w w w w w w w w w w w w w w w w w w w w                                 ",
"                    w w w w w w w w w w w w w w w w w w w w w w w w                                 ",
"                    w w w w w w w w w w w w w w w w w w w w w w w w                                 ",
"                    w w w w w w w w w w w w w w w w w w w w w w w w                                 ",
"                    w w w w w w w w w w w w w w w w w w w w w w w w                                 ",
"                  e w w w w w w w w w w w w w w w w w w w w w w w w w                               ",
"                  w w w w w w w w w w w w w w w w w w w w w w w w w e                               ",
"                  r w w w w w w w w w w w w w w w w w w w w w w w w y                               ",
"                  $.;.;.;.;.;.;.;.;.;.;.;.;.;.;.;.;.;.;.;.;.;.;.;.;.$.                              ",
"                  &.;.;.;.;.;.;.;.;.;.;.;.;.;.;.;.;.;.;.;.;.;.;.;.;.*.                              ",
"                  =.;.;.;.;.;.;.;.;.;.;.;.;.;.;.;.;.;.;.;.;.;.;.;.;.=.                              ",
"                  -.;.;.;.;.;.;.;.;.;.;.;.;.;.;.;.;.;.;.;.;.;.;.;.;.-.                              ",
"    w w w w w w w w w w w w w w w w w w w w w w w w w w w w w w w w w w w w w w w w w w             ",
"    w w w w w w w w w w w w w w w w w w w w w w w w w w w w w w w w w w w w w w w w w               ",
"        r w t t w w w w w w t t w w w w w w w w w w w w w w w w t t w t w w w w                     ",
"              t w p w w w w w t w w w w w w w w w w w w w w w w t t p r w                           ",
"                  9X,X=X$X#.@.k f d a i u w w u i a s f k @.#.#X=X<X9X                              ",
"                '.9X9X9X9X9X9X9X9X9X9X9X9X9X9X9X9X9X9X9X9X9X9X9X9X9X9X[.                            ",
"              [.'.< X X X X X X X X X X X X X X X X X X X X X X X X < [.'.                          ",
"            '.[.'.+.X X X X X X X X X X X O @ X X X X X X X X X X X g [.'.'.                        ",
"            [.[.'.%XX X X X X X X X X X X @X-XO X X X X X X X X X X +X[.[.[.                        ",
"            [.[.[.4X@ X X X X X X X X X 1 9X9Xh X X X X X X X X X X <X[.[.[.                        ",
"            '.'.[.9X7 X X X X X X X X X *X9XwX;XO X X X X X X $ :.1.W.P.P.U.P.j.                    ",
"              '.[.9XOXX X X X X X X X 8 9XwXwX9X+.X X X X X X M P.P.U.U.P.P.6.^                     ",
"                [.9X9X+.% X X X X @ 9 <X9X9X9X9X5Xj % X X X . F B.P.P.U.y.} J J J                   ",
"                  9X9X9X9X9X9X9XwXwX9X9X9X9X9X9X9X9X9X9X9X9XoX!.P.P.P. .^ H J J J                   ",
"                  9X9X9X9X9X9X9X9X9X9X9X9X9X9X9X9X9X9X9X9X9X}.P.U.B.( J J J J J H                   ",
"                  9X9X9X9X9X9X9X9X9X9X9X9X9X9X9X9X9X9X9X9X3X).m. .^ H J J J J J J H                 ",
"                  9X9X9X9X9X9X9X>XZ : & & & & & & : V ;X9XoXR.] P J J J J J P H J J                 ",
"                  9X9X9X9X9X9X>X> & & & & & & & & 3 G >.^.~.m.j.j.E..X      j.j.j.j.m.P.P.          ",
"                  9X9X9X9X9X9XZ & & & & & & & & & b P.P.P.V.V.I.6.o.{.      P.P.P.V.P.V.m.          ",
"                    9X9X9X9X9X: & & & & & & & & - 1.P.P.P.P.j.] J P T.      P.V.P.P.V.0.^           ",
"                    9X9X9X9X9X& & B >X9X9X9X9X9X|.V.V.P.b. .^ J J J J     P.P.U.V.j.{ J J           ",
"                      9X9X9X9X& & >X9X9X9X9X9X9X/.P.P.0.! J H J J J J     P.P.U.6.P J J J           ",
"                      9X9X9X9X& & 9X9X9X&X4 4 (.!.m.| J J J J J J J J     P.j.^ J J J J J           ",
"                        wX9X9X& & A 9X9X4 & * v 0.^ H H J J J J J J H P y. .P P J J J J J           ",
"                          9X9X= & & S |.b b b G 0.6.6.x l `._.  0.9.9.7.m.6.6.6.        ]           ",
"                            wX5 & & 2 Y.m.U.P.P.P.P.| z 5 wX    U.P.P.P.P.P.i.^         P.          ",
"                              V & & m p.P.P.P.m.j.^ J D B     B.V.P.P.P.V.0.J J H       U.          ",
"                                = * v P.P.V.i.| J J J J       P.P.P.V.i.] J J J H       P.          ",
"                                  ; :.P.m.9.! J J J J J P     P.P.j. .P J J J J J     P.P.          ",
"                                    V.i.] J J J J J J J H   U.U.f.^ J J J J J J H H   P.m.          ",
"                                  j.y.^ J J J J J J J J J ^ j. .P J J J J J J J J P 7.j.]           ",
"                                                                                                    ",
"                                                                                                    ",
"                                                                                                    ",
"                                                                                                    ",
"                                                                                                    "
};
